<svg width="412" height="310" viewBox="0 0 412 310" fill="none" xmlns="http://www.w3.org/2000/svg">
<path d="M46.6382 206.047L64.6837 198.566L61.4765 182.53L78.1434 176.527L80.2948 152.623L133.124 148.798L184.503 174.286L211.029 146.015L250.12 148.807L281.881 160.674L301.077 146.015V104.132L294.446 95.4059L296.191 88.4254L324.113 61.5503L339.121 69.5781L315.737 99.2453L328.651 135.195L359.016 114.951L362.506 104.132L402.993 99.2453L400.899 114.951L371.581 120.536L336.678 163.117L342.961 201.161L333.886 223.149L190.087 235.365L150.647 254.911L125.867 247.232L116.792 261.891L108.415 254.911L88.8698 259.448L32.6769 232.224L23.9511 228.734L18.0176 221.404L23.9511 217.914H32.6769L46.6382 206.047Z" fill="white"/>
<path fill-rule="evenodd" clip-rule="evenodd" d="M87.8037 184.877L88.8547 198.057L108.823 202.802L124.062 209.655L136.148 220.199L141.929 215.455L149.285 199.111L157.693 197.53L188.171 200.693L198.681 203.856L195.003 221.781L191.324 234.961L252.281 231.271L250.179 200.693L237.567 172.751L187.646 148.5L150.336 153.245L124.062 182.241L112.502 188.567L92.0076 187.513" fill="#FF6682"/>
<path fill-rule="evenodd" clip-rule="evenodd" d="M125.23 150.85C123.023 151.196 122.775 152.184 121.743 153.701C121.272 153.325 120.98 152.828 120.868 152.207C115.65 154.558 110.222 156.394 104.563 157.263C98.2581 158.231 91.681 156.766 85.2745 156.169C84.4455 156.091 81.9007 155.067 81.2249 155.473C80.6658 155.81 80.6752 158.638 80.6296 159.184C80.3182 162.91 81.0286 166.201 81.5757 169.846C81.7216 170.817 81.5783 172.919 82.3433 173.748C82.8814 174.33 83.8391 174.118 84.5206 174.998C86.3575 177.37 86.9306 181.965 87.7763 185.025L87.7973 185.099L87.8014 185.044C88.0631 181.925 90.5013 183.527 92.3158 184.345C95.0433 185.575 97.9016 186.232 100.852 186.646C103.225 186.979 105.917 187.774 108.351 187.647C110.907 187.514 114.052 186.502 116.54 185.773C118.898 185.084 120.199 183.591 121.827 181.669C123.382 179.833 125.073 178.576 126.751 176.938C130.978 172.811 129.821 164.261 126.149 160.222C129.12 158.697 134.271 155.346 129.753 151.946C128.586 151.067 126.638 150.63 125.23 150.85ZM103.975 180.198C104.284 178.984 103.442 178.103 102.271 178.015C99.3954 177.798 96.0536 183.2 99.5865 182.778C100.92 182.693 103.586 181.732 103.975 180.198ZM90.8407 177.548C92.6946 178.495 95.0053 176.713 95.5088 175.137C95.4467 175.036 95.3928 174.946 95.3441 174.864C95.044 174.361 94.9399 174.186 94.317 173.922C93.9268 173.756 93.424 173.812 92.9507 173.864C92.5439 173.908 92.1589 173.95 91.8861 173.848C91.2631 173.615 91.2247 173.208 91.1665 172.592C91.1527 172.445 91.1376 172.285 91.1132 172.114C90.9242 170.786 90.0238 166.377 88.9527 169.738C88.3206 171.722 88.5353 176.369 90.8407 177.548ZM86.5832 169.223C86.5003 167.749 85.749 165.148 84.7713 163.994C83.3732 162.345 82.3021 163.095 82.2044 165.135C82.0994 167.347 85.5521 174.163 86.5832 169.223ZM96.5216 167.079C96.3478 165.107 95.8007 162.72 94.1253 161.291C92.5019 159.906 91.2003 160.329 91.2003 162.468C91.2969 164.345 92.2294 167.548 94.0933 168.751C96.2223 170.125 96.7106 169.216 96.5216 167.079ZM127.83 155.173C128.249 157.404 123.309 159.696 124.115 156.203C123.954 153.974 127.386 152.81 127.83 155.173Z" fill="white"/>
<path fill-rule="evenodd" clip-rule="evenodd" d="M102.271 178.015C103.442 178.103 104.284 178.984 103.975 180.198C103.586 181.732 100.92 182.693 99.5865 182.778C96.0536 183.2 99.3954 177.798 102.271 178.015ZM91.1132 172.114C91.1376 172.285 91.1527 172.445 91.1665 172.592C91.2247 173.208 91.2631 173.615 91.8861 173.848C92.1589 173.95 92.5439 173.908 92.9507 173.864C93.424 173.812 93.9268 173.756 94.317 173.922C94.9399 174.186 95.044 174.361 95.3441 174.864C95.3928 174.946 95.4467 175.036 95.5088 175.137C95.0053 176.713 92.6946 178.495 90.8407 177.548C88.5353 176.369 88.3206 171.722 88.9527 169.738C90.0238 166.377 90.9242 170.786 91.1132 172.114ZM84.7713 163.994C85.749 165.148 86.5003 167.749 86.5832 169.223C85.5521 174.163 82.0994 167.347 82.2044 165.135C82.3021 163.095 83.3732 162.345 84.7713 163.994ZM94.1253 161.291C95.8007 162.72 96.3478 165.107 96.5216 167.079C96.7106 169.216 96.2223 170.125 94.0933 168.751C92.2294 167.548 91.2969 164.345 91.2003 162.468C91.2003 160.329 92.5019 159.906 94.1253 161.291ZM127.83 155.173C128.249 157.404 123.309 159.696 124.115 156.203C123.954 153.974 127.386 152.81 127.83 155.173Z" fill="white"/>
<path fill-rule="evenodd" clip-rule="evenodd" d="M339.146 63.7324C343.253 68.7248 337.202 75.7847 333.771 79.2681C332.106 80.9594 330.726 82.9139 329.098 84.6472C327.49 86.3601 325.472 87.7081 324.028 89.3616C322.511 91.098 320.761 92.9985 319.493 94.952C318.691 96.1897 317.501 97.5719 317.102 99.0083C316.53 101.074 317.008 99.8807 317.766 101.049C318.539 102.241 318.799 102.31 319.062 103.972C319.317 105.588 319.679 106.771 320.552 108.152C321.99 110.426 323.543 112.564 324.557 115.078C325.906 118.422 326.86 121.817 327.934 125.258C328.353 126.599 328.634 128.136 329.31 129.372C330.27 131.128 330.405 130.981 331.834 129.886C336.099 126.617 340.412 123.161 344.858 120.046C347.405 118.261 350.05 116.513 352.738 114.95C354.583 113.877 358.547 111.967 359.47 109.975C360.694 107.333 358.789 104.909 361.412 102.477C363.12 100.893 365.905 100.015 368.131 99.63C371.277 99.0866 374.752 99.8629 377.894 100.144C381.071 100.428 384.178 100.119 387.293 99.4687C392.063 98.4738 401.225 92.9685 404.316 99.5822C405.668 102.476 404.754 105.682 404.5 108.649C404.279 111.234 403.52 113.978 401.91 116.105C400.069 118.535 397.39 118.662 394.603 119.307C391.311 120.069 387.934 120.346 384.638 121.089C383.015 121.455 381.413 121.633 379.746 121.71C378.263 121.779 376.124 121.178 374.822 121.367C373.587 121.547 374.009 122.327 373.142 122.867C372.79 123.086 372.074 122.929 371.854 123.105C371.251 123.59 371.077 124.012 370.638 124.89C369.242 127.678 367.13 130.396 365.335 132.95C363.823 135.101 362.072 137.736 360.293 139.656C356.523 143.727 352.861 148.213 349.141 152.467C347.247 154.631 344.977 156.933 342.777 158.794C342.098 159.368 340.725 159.885 340.378 160.689C339.883 161.835 341.23 164.358 341.544 165.51C342.291 168.249 342.393 171.078 343.186 173.776C343.944 176.356 344.22 179.169 344.388 181.859C344.769 187.937 345.599 193.703 345.404 199.785C345.236 205.03 345.044 210.061 343.222 215.211C341.564 219.898 336.598 225.001 331.978 226.728C329.229 227.757 326.674 228.691 323.907 229.249C321.175 229.8 318.295 230.364 315.582 231.139C310.548 232.577 305.242 233.581 300.014 234.074C293.322 234.704 286.341 234.764 279.667 234.532C276.623 234.427 273.495 234.42 270.491 234.429C267.379 234.439 264.446 235.052 261.335 235.379C250.354 236.53 238.75 235.605 227.776 236.731C222.352 237.287 216.936 238.359 211.418 238.423C206.477 238.48 201.468 238.154 196.636 238.132C195.104 238.126 193.769 238.248 192.238 237.896C191.431 237.711 190.296 236.989 189.48 237.405C188.768 237.768 188.231 239.3 187.79 239.952C186.825 241.379 185.65 242.525 184.408 243.708C179.481 248.404 174.599 249.986 168.133 251.706C165.164 252.497 163.699 252.91 161.207 254.718C159.176 256.19 157.122 257.248 154.785 258.117C150.201 259.819 144.796 258.502 140.488 257.025C138.402 256.31 136.21 255.659 134.079 254.81C131.176 253.653 128.78 251.732 125.92 250.551C126.248 253.604 122.937 254.629 121.932 256.68C121.283 258.006 121.677 260.087 120.985 261.585C120.343 262.975 119.351 264.289 117.804 264.652C115.695 265.148 111.926 262.802 110.445 261.433C109.622 260.673 108.888 258.65 107.881 258.313C106.568 257.873 104.161 259.816 102.918 260.255C96.9702 262.354 90.9428 263.344 84.5563 262.508C78.0852 261.66 72.1534 259.363 66.085 257.184C54.2004 252.917 43.8556 245.892 34.5494 237.433C34.0317 236.963 33.2804 236.543 32.9233 235.926C32.6115 235.387 32.6388 234.116 32.4351 233.815C31.8286 232.92 30.9203 233.078 29.7831 232.992C26.2696 232.727 23.4785 231.879 20.7551 229.524C16.4688 225.818 14.8832 217.177 21.454 214.882C23.1336 214.295 24.9822 214.178 26.7185 214.54C27.4346 214.689 30.0987 216.304 30.7791 216.195C31.8108 216.031 31.6102 214.703 31.8843 213.994C32.5794 212.196 33.5576 210.613 34.7368 209.087C36.6968 206.551 39.0851 204.001 41.536 201.937C44.1985 199.694 47.1302 198.699 50.2999 197.457C52.4352 196.62 56.6034 195.184 58.8653 195.932C61.8107 196.907 60.369 200.126 58.513 201.252C55.8621 202.861 52.6809 203.52 49.9948 205.148C47.0305 206.944 44.3229 209.404 41.61 211.563C39.4269 213.301 37.5352 215.445 35.3175 217.111C34.7295 217.552 33.7692 218.325 33.5865 218.569C33.5229 218.654 33.6012 219.34 33.3103 219.646C32.0203 221 32.3222 220.847 30.3796 220.372C28.0894 219.812 22.6222 218.545 21.078 221.384C19.6883 223.94 25.3765 226.242 27.244 227.022C29.9858 228.165 30.6263 229.314 32.5852 231.494C34.5919 233.728 37.9253 235.246 40.4392 236.912C45.8728 240.511 51.9805 243.064 57.7995 245.924C63.462 248.706 69.5492 250.709 75.4496 252.656C79.0119 253.831 83.281 255.092 87.0197 255.454C90.7869 255.819 94.3198 255.205 98.0161 254.486C99.494 254.198 100.61 253.978 102.155 253.433C102.844 253.19 103.967 253.155 104.513 252.73C105.361 252.071 105.008 251.545 105.159 250.421C105.815 245.489 109.236 250.995 110.75 252.636C111.918 253.904 113.069 255.461 114.607 256.264C116.534 257.27 116.868 256.796 117.5 255.138C118.682 252.032 119.127 248.502 123.595 248.959C120.068 245.94 116.706 243.376 113.686 239.749C110.707 236.171 107.922 232.326 105.065 228.649C102.724 225.635 100.684 221.475 97.6449 219.098C96.6841 218.346 93.7633 216.614 92.6513 216.651C90.9874 216.705 89.51 219.423 87.7175 219.649C85.7376 219.9 84.8261 219.208 84.2607 217.601C83.6742 215.933 85.0761 214.014 84.6025 212.801C84.4707 212.464 83.628 212.06 83.3676 211.57C82.9759 210.834 82.9476 209.866 83.0647 209.051C83.2395 207.835 83.6695 207.339 83.5776 206.116C83.471 204.694 82.8478 203.654 83.3387 202.168C83.8538 200.606 85.4389 199.75 86.428 198.596C87.9254 196.85 87.1604 195.534 86.5598 193.291C85.2735 188.491 83.7735 183.747 82.4682 178.95C79.4666 179.899 76.5317 180.976 73.5143 181.861C70.6119 182.713 67.0201 183.477 64.3272 184.821C62.7091 185.628 63.1585 184.887 63.2782 186.679C63.3549 187.84 63.8452 189.137 64.0731 190.281C64.4937 192.395 64.6769 197.849 66.3323 198.859C67.3346 199.47 68.9475 198.582 70.0496 199.817C70.9778 200.855 70.6996 202.366 71.2582 203.521C71.6053 204.239 72.2768 204.512 72.6947 205.172C73.5673 206.551 73.4744 207.71 73.6282 209.256C73.7248 210.229 73.5752 213.143 74.0593 213.9C74.7051 214.908 75.9846 214.733 77.0635 215.048C79.7821 215.839 82.286 217.216 84.5946 218.822C85.7927 220.287 94.3676 228.866 90.6435 229.957C88.8453 230.484 85.6636 226.433 84.3694 225.332C82.3632 223.625 80.262 222.504 77.8159 221.563C71.8457 219.266 66.4442 217.201 59.9427 218.155C57.1553 218.564 53.7693 219.798 50.9693 219.526C48.1514 219.253 48.8812 216.739 50.6433 215.337C52.2189 214.083 54.412 214.435 55.1034 212.333C55.8012 210.208 55.052 207.524 56.1719 205.395C57.128 203.577 59.3819 201.69 61.1219 200.637C61.8806 200.178 63.1811 199.858 63.5775 199.181C63.9025 198.626 62.5631 195.445 62.3773 194.784C61.4679 191.544 60.4766 188.302 59.7064 185.027C58.9924 181.992 58.8065 180.419 62.0034 179.317C66.8826 177.635 71.998 176.849 76.8792 175.303C76.014 173.049 73.3095 174.945 71.3669 174.867C68.9874 174.772 66.2342 173.988 63.9681 173.257C58.8238 171.597 55.3234 167.458 54.5285 162.12C54.3537 160.949 54.9044 158.601 54.4781 157.566C54.0759 156.588 52.9387 156.112 52.1076 155.415C49.9654 153.62 48.068 151.155 46.9124 148.604C45.7541 146.047 45.6733 143.175 46.3464 140.476C46.717 138.99 46.9265 138.785 46.4026 137.379C45.7956 135.753 44.8059 134.305 44.2462 132.634C43.3295 129.897 42.8297 126.946 42.8796 124.055C42.9363 120.812 44.2368 119.358 45.0984 116.499C45.7783 114.242 44.8506 111.123 45.006 108.618C45.205 105.414 46.0251 102.84 47.4411 99.9874C49.6168 95.6053 53.0621 90.9078 57.5464 88.61C58.4332 88.1554 59.8907 88.1286 60.683 87.6004C61.6674 86.944 61.7446 85.9764 62.13 84.8265C63.0493 82.0841 64.197 79.8625 66.1848 77.766C72.6317 70.9668 83.9289 68.5587 92.9889 69.1326C94.6159 69.2361 96.1669 70.0061 97.7089 69.5536C98.7774 69.2398 99.9093 68.1267 101.011 67.6657C102.405 67.0824 103.801 66.7413 105.301 66.592C108.264 66.2967 110.673 66.6088 113.403 67.609C114.434 67.9869 115.421 68.3994 116.437 68.8094C118.041 69.4574 117.95 69.1489 119.458 68.8483C122.464 68.2496 124.192 68.6927 126.855 69.9756C127.565 70.3172 128.688 70.5711 129.298 71.0499C130.162 71.7284 130.515 73.7901 131.477 74.1749C132.01 74.3888 133.66 73.602 134.347 73.49C135.561 73.2919 136.75 73.4664 137.958 73.4533C140.096 73.4301 142.356 73.5095 144.309 74.5207C145.779 75.2817 147.549 76.7501 148.816 77.7282C150.568 79.081 151.663 81.6389 153.85 82.3474C154.707 82.6249 155.634 82.3442 156.509 82.5807C157.649 82.8887 158.745 83.7149 159.668 84.4444C161.257 85.6989 162.601 88.6153 164.219 89.1251C165.299 89.4656 166.978 89.1103 168.214 89.463C169.765 89.9055 171.051 90.5467 172.201 91.7203C174.394 93.9592 175.013 97.2687 175.107 100.304C175.133 101.123 174.628 103.43 175.118 104.156C175.554 104.801 177.194 105.172 177.862 105.833C179.949 107.9 180.892 111.345 181.103 114.177C181.345 117.408 180.511 119.685 179.936 122.777C179.579 124.704 179.116 123.47 180.742 124.605C181.859 125.384 182.63 125.929 183.354 127.153C184.868 129.711 185.249 132.726 184.999 135.642C184.687 139.279 182.842 141.99 182.013 145.431C185.835 145.431 189.952 146.442 193.686 147.146C195.064 147.406 196.131 148.164 197.354 148.771C198.409 149.295 199.197 149.356 200.192 149.704C202.602 150.544 202.136 150.404 203.813 148.684C210.491 141.834 219.996 137.698 229.581 137.833C234.928 137.907 240.1 138.613 245.098 140.538C247.17 141.335 249.473 142.195 251.311 143.446C253.44 144.895 253.757 144.878 256.571 144.937C266.764 145.149 276.654 150.623 284.071 157.258C284.734 152.808 291.962 150.139 295.463 148.294C296.659 147.664 297.758 147.335 298.346 146.155C298.897 145.049 298.864 142.776 299.232 141.474C299.908 139.083 300.689 136.158 300.628 133.637C300.453 126.337 298.764 119.071 298.545 111.755C298.49 109.917 298.282 107.855 298.526 106.036C298.723 104.57 299.391 103.656 298.43 102.299C296.603 99.7231 293.236 99.0798 292.105 95.6888C290.28 90.2245 293.414 84.6367 297.693 81.3867C300.157 79.5156 302.564 79.1194 304.539 76.4963C306.317 74.1328 307.82 71.3379 309.848 69.1894C311.548 67.3883 313.096 64.9749 315.044 63.476C317.042 61.9392 319.974 60.9002 322.36 60.1702C328.086 58.4169 335.117 58.8352 339.146 63.7324ZM160.165 201.002C158.833 201.059 157.493 201.209 156.158 201.207C155.347 201.206 153.46 200.768 152.729 201.077C151.267 201.696 150.084 205.08 149.401 206.431C147.188 210.81 145.446 215.401 143.287 219.797C142.164 222.084 140.487 223.587 137.837 223.624C134.868 223.665 133.471 221.763 131.586 219.811C127.829 215.917 122.771 212.57 118.108 209.861C113.07 206.937 107.063 204.103 101.327 203.07C97.5078 202.383 88.7571 199.417 86.4333 204.208C87.6209 204.049 92.1535 203.356 92.3457 205.365C92.4901 206.872 86.9142 207.129 86.2254 209.493C87.6834 209.379 92.7158 207.975 93.0697 210.141C93.2577 211.293 91.1549 211.874 90.4151 212.262C88.9492 213.033 88.0667 213.834 86.9126 214.992C88.693 214.992 90.4482 213.48 92.1388 213.638C92.8361 213.703 93.6746 214.746 94.3088 215.064C95.2087 215.514 96.18 215.739 97.1723 215.862C99.3329 216.129 100.641 215.52 102.363 216.927C103.91 218.19 105.518 219.859 106.943 221.265C109.984 224.268 112.488 228.078 115.096 231.453C118.318 235.618 121.663 238.925 125.947 242.045C129.435 244.584 132.97 246.229 136.922 248.098C140.799 249.932 145.675 252.059 150.073 252.16C153.582 252.241 157.967 251.115 161.159 249.618C163.016 248.747 163.692 248.748 165.55 248.404C168.434 247.869 171.772 246.32 174.442 245.106C182.825 241.291 188.138 232.978 191.918 224.84C194.07 220.209 195.414 215.684 196.311 210.673C196.799 207.944 197.225 207.303 194.566 206.174C191.88 205.034 188.977 204.329 186.181 203.524C177.98 201.163 168.633 200.642 160.165 201.002ZM180.198 151.607C179.362 151.984 178.917 156.007 178.541 156.903C176.866 160.902 173.894 163.397 169.535 163.813C168.182 163.943 165.975 162.711 165.005 163.293C163.707 164.073 163.472 167.801 162.075 169.024C160.789 170.15 158.109 171.341 156.459 171.774C155.185 172.108 153.922 172.016 152.653 171.722C151.929 171.554 150.548 170.66 149.84 170.997C148.633 171.572 148.064 174.633 146.686 175.672C144.672 177.19 141.473 178.315 139.007 178.286C136.463 178.257 133.398 176.248 131.133 176.729C128.445 177.299 128.798 179.8 127.625 181.755C125.133 185.906 122.3 189.481 117.82 191.463C112.973 193.606 106.026 193.879 100.943 192.788C98.1794 192.196 95.4061 191.357 93.0739 189.773C91.2159 188.511 89.8211 186.83 88.1003 185.404L87.819 185.176L87.8331 185.226C87.8713 185.359 87.9101 185.489 87.9496 185.615C88.7692 188.228 89.133 192.865 90.7611 194.996C92.2181 196.903 97.2768 197.01 99.7125 197.266C106.239 197.954 111.852 199.482 117.609 202.756C123.12 205.89 128.154 209.683 132.925 213.77C133.905 214.609 134.688 215.955 135.874 216.496C137.81 217.377 137.654 216.348 138.165 214.623C139.216 211.087 140.33 207.594 141.931 204.26C142.616 202.831 144.176 201.061 144.51 199.543C144.831 198.088 144.173 196.499 144.397 194.936C144.961 190.988 146.743 187.621 148.977 184.428C150.528 182.211 155.169 178.438 154.576 184.016C154.138 188.136 151.131 191.785 150.391 195.832C152.671 195.407 154.102 195.531 156.155 195.661C158.956 195.838 162.142 194.742 165.029 194.732C170.565 194.715 176.018 195.076 181.46 196.063C183.98 196.52 186.379 197.037 188.809 197.899C190.718 198.576 193.257 200.734 195.291 200.899C196.765 201.018 196.251 201.212 196.652 199.953C197.025 198.786 196.624 196.686 196.55 195.461C196.381 192.69 195.717 189.993 195.372 187.24C195.225 186.059 193.815 181.134 195.302 180.18C197.579 178.719 198.53 184.45 198.82 185.476C200.305 190.738 201.26 195.922 201.216 201.424C201.177 206.182 200.861 210.755 199.971 215.485C199.445 218.279 198.48 220.963 197.397 223.583C196.827 224.963 193.482 230.194 193.947 231.116C194.32 231.854 200.004 230.569 200.878 230.494C203.99 230.227 207.109 230.413 210.224 230.228C214.828 229.954 219.466 230.01 223.875 229.199C226.504 228.714 229.293 229.177 231.919 229.194C234.816 229.213 237.615 228.946 240.531 229.222C242.745 229.431 246.067 230.6 248.203 230.114C250.39 229.617 249.744 228.154 249.759 225.927C249.795 220.548 249.316 214.358 248.115 209.128C247.481 206.37 246.629 203.701 246.174 200.897C245.72 198.093 245.743 195.062 244.898 192.346C243.397 187.528 239.272 183.346 235.855 179.785C232.339 176.121 228.428 173.46 224.115 170.832C220.448 168.599 216.574 166.502 212.602 164.755C207.834 162.658 202.421 161.365 198.003 158.605C194.326 156.307 189.008 154.042 184.766 152.978C184.094 152.81 180.673 151.394 180.198 151.607ZM311.157 107.076C308.099 107.506 302.38 106.012 302.383 110.23C302.384 112.543 303.152 114.969 303.37 117.284C303.626 120.015 303.449 122.764 303.865 125.485C304.538 129.889 305.526 133.956 305.196 138.481C304.835 143.4 303.81 148.126 303.906 153.116C303.996 157.864 303.74 162.442 305.996 166.799C306.948 168.638 307.721 170.799 308.768 172.521C309.996 174.538 311.059 175.128 313.253 175.941C314.627 176.45 318.01 177.112 318.9 178.483C320.185 180.462 318.469 181.263 316.779 181.195C311.559 180.988 306.2 178.659 301.306 176.957C299.003 176.156 296.787 175.148 294.524 174.274C292.716 173.575 291.241 173.334 289.597 172.143C285.589 169.239 282.496 165.226 278.544 162.247C271.067 156.613 262.103 153.249 252.712 152.251C250.296 151.994 248.425 152.109 246.005 152.314C244.667 152.428 243.341 152.464 242.015 152.71C241.25 152.852 238.37 154.22 237.772 153.936C233.888 152.089 244.888 146.467 246.125 146.16C244.562 145.059 241.316 145.248 239.441 145.004C237.047 144.69 234.72 144.385 232.303 144.517C228.924 144.702 225.33 144.602 222.013 145.332C217.858 146.245 213.923 147.648 210.168 149.616C208.914 150.273 207.15 151.072 207.162 152.903C207.173 154.623 207.859 154.342 209.534 154.723C214.048 155.75 218.225 158.742 222.246 161.021C226.522 163.444 230.78 166.166 234.748 169.07C242.354 174.636 246.695 182.644 250.073 191.349C251.821 195.851 253.088 201.109 253.613 205.907C254.199 211.246 253.71 216.615 254.128 221.948C254.226 223.208 254.395 228.237 255.346 229.021C256.067 229.615 259.647 228.552 260.657 228.483C264.875 228.192 269.12 228.221 273.258 227.983C282.004 227.479 290.971 228.182 299.797 227.663C304.238 227.402 308.535 226.778 312.89 225.882C316.937 225.049 321.979 224.95 325.671 223.026C332.777 219.324 337.109 210.397 337.421 202.839C337.759 194.646 337.2 185.731 335.479 177.569C334.577 173.289 333.795 169.216 332.733 164.987C331.545 160.252 330.211 155.537 328.907 150.861C326.66 142.811 323.163 135.312 321.49 127.062C320.569 122.524 319.264 117.779 317.902 113.349C317.4 111.717 316.41 108.616 315.242 107.375C314.015 106.073 312.984 106.82 311.157 107.076ZM61.8134 205.113C59.971 206.292 58.6427 208.943 58.7267 211.128C58.7267 214.012 61.1208 212.783 63.3769 212.888C64.7504 212.952 69.8296 214.361 70.7227 213.001C71.789 211.376 68.5821 212.101 68.1763 211.23C67.3556 209.468 71.1185 208.723 70.6586 207.196C70.1987 205.669 66.3754 209.193 65.5558 207.42C64.7971 205.779 68.6593 204.359 68.0665 203.229C67.5635 202.271 62.4644 204.696 61.8134 205.113ZM69.8136 190.085C69.8041 191.315 69.3804 192.95 67.852 192.699C65.9435 192.386 65.365 188.722 65.1907 187.335C66.4129 182.77 69.8341 187.285 69.8136 190.085ZM125.23 150.85C123.023 151.196 122.775 152.184 121.743 153.701C121.272 153.325 120.98 152.828 120.868 152.207C115.65 154.558 110.222 156.394 104.563 157.263C98.2581 158.231 91.681 156.766 85.2745 156.169C84.4455 156.091 81.9007 155.067 81.2249 155.473C80.6658 155.81 80.6752 158.638 80.6296 159.184C80.3182 162.91 81.0286 166.201 81.5757 169.846C81.7216 170.817 81.5783 172.919 82.3433 173.748C82.8814 174.33 83.8391 174.118 84.5206 174.998C86.3575 177.37 86.9306 181.965 87.7763 185.025L87.7973 185.099L87.8014 185.044C88.0631 181.925 90.5013 183.527 92.3158 184.345C95.0433 185.575 97.9016 186.232 100.852 186.646C103.225 186.979 105.917 187.774 108.351 187.647C110.907 187.514 114.052 186.502 116.54 185.773C118.898 185.084 120.199 183.591 121.827 181.669C123.382 179.833 125.073 178.576 126.751 176.938C130.978 172.811 129.821 164.261 126.149 160.222C129.12 158.697 134.271 155.346 129.753 151.946C128.586 151.067 126.638 150.63 125.23 150.85ZM87.7973 185.099L87.7931 185.155L87.819 185.176L87.7973 185.099ZM102.271 178.015C103.442 178.103 104.284 178.984 103.975 180.198C103.586 181.732 100.92 182.693 99.5865 182.778C96.0536 183.2 99.3954 177.798 102.271 178.015ZM91.1132 172.114C91.2398 173.004 91.1143 173.559 91.8861 173.848C92.4762 174.069 93.5914 173.614 94.317 173.922C95.041 174.229 95.0641 174.415 95.5088 175.137C95.0053 176.713 92.6946 178.495 90.8407 177.548C88.5353 176.369 88.3206 171.722 88.9527 169.738C90.0238 166.377 90.9242 170.786 91.1132 172.114ZM296.106 154.364C295.144 154.713 294.295 155.704 293.435 156.243C291.147 157.678 288.645 158.439 286.453 160.009C288.018 161.698 288.838 163.988 290.366 165.613C291.323 166.63 292.486 166.743 293.636 167.295C296.997 168.908 300.953 171.177 304.666 171.948C302.492 169.404 301.113 167.102 299.822 164.012C299.36 162.906 298.781 161.738 298.436 160.59C297.94 158.946 298.207 157.206 297.787 155.584C297.334 153.833 297.959 153.691 296.106 154.364ZM84.7713 163.994C85.749 165.148 86.5003 167.749 86.5832 169.223C85.5521 174.163 82.0994 167.347 82.2044 165.135C82.3021 163.095 83.3732 162.345 84.7713 163.994ZM94.1253 161.291C95.8007 162.72 96.3478 165.107 96.5216 167.079C96.7106 169.216 96.2223 170.125 94.0933 168.751C92.2294 167.548 91.2969 164.345 91.2003 162.468C91.2003 160.329 92.5019 159.906 94.1253 161.291ZM127.83 155.173C128.249 157.404 123.309 159.696 124.115 156.203C123.954 153.974 127.386 152.81 127.83 155.173ZM361.052 114.807C357.321 119.362 352.803 122.255 348.135 125.696C343.999 128.746 340.061 132.04 335.584 134.571C334.269 135.315 332.116 135.747 331.878 137.129C331.655 138.427 334.065 141.915 334.622 143.323C336.502 148.071 337.891 152.944 339.361 157.844C343.743 151.014 348.162 144.07 353.534 137.894C358.274 132.444 363.136 126.741 367.279 120.869C364.771 119.341 362.693 117.234 361.052 114.807ZM388.4 104.303C384.245 105.601 379.458 106.333 375.128 105.89C373.165 105.689 371.231 105.522 369.249 105.4C367.765 105.308 365.255 104.585 363.979 105.728C362.771 106.809 362.917 108.961 363.532 110.305C363.93 111.174 364.482 111.314 364.842 112.033C364.958 112.265 364.614 112.666 364.913 113.211C365.734 114.711 368.528 117.217 370.033 117.981C371.964 118.961 372.253 117.821 373.758 116.833C376.928 114.755 382.253 114.717 385.966 114.343C386.041 115.142 396.802 111.301 397.864 110.596C399.85 109.279 402.178 103.214 400.065 101.417C397.514 99.2474 390.868 103.531 388.4 104.303ZM316.033 75.3952C314.726 77.4796 312.986 79.7175 311.054 81.2768C308.872 83.038 306.04 83.7217 303.546 84.9269C301.286 86.0179 299.278 87.1111 297.867 89.2165C296.891 90.6728 295.103 92.7162 295.918 94.593C296.753 96.5129 300.039 97.8594 301.466 99.5281C303.432 101.825 303.435 101.374 306.379 100.739C307.85 100.422 309.247 100.323 310.75 100.376C311.358 100.397 313.411 100.993 313.95 100.593C314.64 100.08 313.962 97.953 314.049 97.1252C314.182 95.8659 314.63 94.5667 315.054 93.3795C316.736 88.6662 319.934 85.5581 323.044 81.9842C326.38 78.1497 330.951 75.4583 334.239 71.6059C336.054 69.4789 335.228 67.9753 332.737 66.9794C331.471 66.4738 329.988 66.4759 328.689 66.0728C327.346 65.656 326.149 64.8351 324.71 64.8188C318.595 64.5733 318.4 71.6232 316.033 75.3952Z" fill="#2B292E"/>
</svg>
