<svg fill="none" height="225" viewBox="0 0 314 225" width="314" xmlns="http://www.w3.org/2000/svg" xmlns:xlink="http://www.w3.org/1999/xlink"><clipPath id="a"><path d="m0 0h314v225h-314z"/></clipPath><g clip-path="url(#a)"><path d="m111.215 129.258-41.1833 22.704v30.713l28.459-12.069h119.5133l32.384 4.241 44.72-22.885-84.111-13.775 7.007-44.7923 40.518-22.311-62.161-12.818-5.267-2.81 5.267-4.916 10.009-23.53-8.077-20.36899-25.11-4.917-19.316 12.64299h-8.86l-3.958 9.482 3.958 6.674h6.864l-4.224 21.119h-22.704l-13.728 13.729z" fill="#fff"/><g clip-rule="evenodd" fill-rule="evenodd"><path d="m133.479 94.5037c-3.384 2.46-2.845 7.3003-1.826 10.8163 1.5 5.177 4.487 9.97 7.895 14.102 6.046 7.329 16.31 15.558 25.771 9.124 8.426-5.73 13.74-17.293 15.575-27.033.567-3.0103 1.322-7.4943-1.342-9.7573-3.939-3.345-10.886-2.737-15.64-2.306-3.131.283-6.152 1.246-9.246.794-7.189-1.05-15.19-.099-21.187 4.26z" fill="#ff6682"/><path d="m313.694 137.911c-.723-2.82-.173-5.942-.571-8.831-.387-2.799-1.084-5.372-2.082-8.011-2.212-5.842-4.746-11.1-8.332-16.227-6.752-9.6543-14.587-18.1583-24.047-25.2103-9.34-6.962-19.681-12.62-30.637-16.585-11.617-4.205-23.311-5.668-35.561-6.475-3.659-.24-7.314-.525-10.952-.989-2.658-.338-5.991-.755-8.62.061-1.652.513-2.574 1.958-.775 2.905 1.276.672 2.945.753 4.354.931-1.702 5.421-4.47 10.861-8.859 14.594-4.283 3.645-10.016 4.894-15.422 5.818-2.932.501-6.215.889-9.192.673-1.883-.137-3.351-1.011-4.111.934-.527 1.35-.776 2.832-1.471.793-.822-2.411-1.225-2.396-3.782-3.081-5.228-1.4-11.221-2.678-15.782-5.707-4.732-3.142-6.378-8.226-9.019-12.959-.654-1.17-2.624-3.538-1.617-4.878.921-1.226 3.915-1.104 5.286-1.232 1.447-.135 2.903-.141 4.355-.197.841-.033 2.533.313 2.195-.947-.511-1.899-5.981-1.655-7.339-1.686-2.526-.057-5.087.002-7.601.28-12.462 1.382-25.0364 3.938-37.0954 7.346-23.398 6.611-46.058 18.793-63.133 36.343-16.39102 16.8463-21.58402 44.8803-11.507 66.3903 5.236 11.179 16.6 15.772 27.616 19.48 5.811 1.957 11.964 3.487 18.14 3.118 2.965-.178 5.777-.978 8.668-1.581 1.261-.263 2.695-.682 3.99-.577.981.081 1.922.983 2.842.504.653-.341.936-1.318 1.734-1.734.957-.499 2.118-.679 3.153-.931 2.874-.7 5.658-1.836 8.468-2.767 2.8505-.945 5.544-2.157 8.278-3.387l.157-.07c1.408-.633 4.6654-3.207 5.5834-1.325.418.859.24 2.516.342 3.417.178 1.575.388 3.147.617 4.716.505 3.454 1.109 6.894 1.729 10.329.769 4.268 1.692 8.41 2.979 12.479h148.37c-1.141-.839-2.063-2.75-2.756-3.604-3.583-4.416-8.498-7.71-12.519-11.7-4.54-4.504-8.416-9.962-11.837-15.345 1.547-.403 3.215.266 4.712.584 1.819.386 3.591.853 5.384 1.348 1.975.546 3.978.92 5.983 1.336 1.496.31 3.482.403 4.832 1.156 1.178.657 1.836 1.362 3.3 1.553 1.488.193 3.015.03 4.51.02 4.043-.027 8.078-.103 12.103-.531 14.219-1.515 29.292-7.546 37.842-19.515 2.326-3.256 4.199-6.863 5.383-10.69.924-2.988 2.518-7.199 1.714-10.336zm-63.311 4.958c10.349.086 22.003-1.292 28.857-10.011 2.159-2.747-.483-6.042-2.254-8.152-2.291-2.732-4.751-5.058-7.606-7.202-5.635-4.23-11.763-7.232-18.08-10.274-6.389-3.077-12.522-5.247-19.551-6.323-.485-.074-.969-.146-1.453-.217-2.394-.353-4.776-.7034-7.106-1.3863l-.177-.0518c-1.928-.5652-3.1-.909-4.032 1.1811-.651 1.456-.878 3.123-1.097 4.73-.058.421-.115.838-.178 1.246-.225 1.442-.426 2.887-.627 4.333-.227 1.633-.454 3.265-.715 4.893-.116.716-.241 1.453-.37 2.205l-.002.014-.001.003c-.952 5.573-2.047 11.975.025 17.207.71 1.792 2.83 2.386 4.723 2.917.486.136.958.268 1.387.416 3.174 1.089 6.437 1.996 9.722 2.681 6.093 1.27 12.32 1.739 18.535 1.791zm-40.808 18.27c8.757 3.77 18.216 6.146 27.492 8.232.218.049.659.158 1.25.304 3.228.8 10.914 2.703 10.961 1.909l.027-.465c.413-7.03.843-14.342-1.909-21.001-1.04-2.515-2.244-3.331-4.967-3.423-3.503-.118-6.869-.438-10.321-1.132-7.035-1.414-14.109-3.431-20.709-6.28-2.889-1.247-5.702-2.755-8.108-4.803-1.249-1.063-2.555-2.294-3.372-3.73-.282-.495-.484-1.007-.681-1.519l-.039-.102c-.298-.775-.593-1.543-1.138-2.237-1.332-1.697-3.119-3.282-4.828-4.799-.602-.534-1.195-1.059-1.754-1.578-1.935-1.793-4.614-3.996-7.456-3.335 1.15 2.84 3.487 5.306 5.652 7.418.162.159.392.355.654.58 1.155.989 2.944 2.522 2.457 3.79-.934 2.428-4.822.074-6.203-.762l-.009-.006c-.052-.031-.101-.061-.145-.087-2.739-1.644-5.667-2.826-8.814-3.438 1.833 2.186 3.804 4.27 6.109 5.958.104.076.218.158.34.244 1.305.928 3.38 2.404 1.628 3.822-2.314 1.872-5.872-.097-8.922-1.785-1.38-.763-2.656-1.47-3.666-1.736-.405 1.864.59 2.838 1.887 4.085.66.634 1.388.938 2.108 1.238.852.356 1.693.707 2.394 1.595 2.581 3.268 5.277 6.336 8.275 9.249 6.432 6.251 13.634 10.276 21.807 13.794zm-51.083-34.001c1.616-1.01 3.286-2.343 4.733-3.592.77-.665 1.628-1.222 2.484-1.777.973-.631 1.943-1.261 2.781-2.046 3.053-2.864 5.778-5.791 7.623-9.593.615-1.265 1.092-2.408 1.242-3.792.029-.264-.066-2.585-.066-2.585 2.119-1.715.017-5.7093-1.151-7.7463-.041-.0704-.085-.1502-.133-.2363l-.001-.0016c-.298-.5356-.731-1.3147-1.165-1.5901-.097-.0612-.257-.0274-.428.0089-.185.0391-.384.0811-.532.0111-.118-.0554-.209-.1648-.3-.2738-.091-.1093-.182-.2182-.298-.2722-1.723-.796-3.623-1.2-5.536-1.231-3.848-.06-7.741 2.454-10.102 5.32-1.319 1.602-1.816 1.864-3.111.203-1.111-1.425-2.352-2.874-4.086-3.531-3.073-1.164-7.25-.391-10.123 1.001-3.164 1.533-4.906 4.8583-5.42 8.2373-1.212 7.973 6.731 16.656 13.224 20.2.845.461 1.736.809 2.625 1.156 1.085.424 2.17.847 3.173 1.477 1.553.976 2.842 1.732 4.567.653zm13.137 24.753c-1.491.465-3.097-4.221-1.667-4.969 1.364-.714 3.017 4.549 1.667 4.969zm-25.566-5.712c-1.122 1.414-1.008 3.953.149 5.329.97-1.108 1.324-2.552 1.67-3.964.104-.425.207-.847.327-1.256.565-1.934-1.506-.916-2.146-.109zm49.863-30.904c-.122.633-.287 3.146.914 1.855.743-.799-.428-1.54-.804-1.778-.07-.044-.112-.07-.11-.077zm7.449-14.425c-.021 1.79-3.799 1.357-3.772-.443.033-2.2153 3.794-1.4543 3.772.443zm-4.51-14.9583c.374-1.639 6.946-3.918 6.767-1.062-.09 1.432-7.56 4.546-6.767 1.062zm-70.041 57.4893c.884-.682 1.93-1.032 2.667-1.92.63-.759 1.398-1.445 1.704-2.418-1.865 0-7.283 3.255-8.22.465-.966-2.874 4.341-5.979 5.906-7.708-1.821.275-3.615.698-5.355 1.301-1.054.364-2.773 1.492-3.935 1.457-2.398-.073-1.508-2.894-.639-4.14 1.227-1.761 3.024-3.144 4.677-4.478.344-.278 3.358-2.262 3.066-2.879-6.317 1.989-12.563 4.32-18.225 7.802-5.78 3.554-11.4524 7.425-17.0684 11.232-4.569 3.097-9.551 6.441-14.723 8.423-1.702.652-4.453 1.159-5.438 2.892-.883 1.552-.388 3.963-.366 5.659.052 4.129-.429 8.313-.595 12.448-.041 1.008-.493 3.675.396 4.433.823.703 3.221-.24 4.053-.474 10.048-2.822 20.17-6.045 28.8984-11.938 4.885-3.298 9.105-7.478 13.51-11.367 2.396-2.115 5.07-4.007 7.291-6.31.808-.839 1.47-1.766 2.396-2.48zm-82.0194 9.455c3.496.441 6.651-.127 10.065-.88.501-.111 1.0015-.22 1.5013-.328 3.0732-.667 6.1221-1.329 9.1067-2.381 3.1468-1.111 6.1031-2.599 9.0688-4.092.7872-.396 1.575-.792 2.3672-1.182 1.558-.767 3.1498-1.458 4.7416-2.148l.3604-.156c1.8015-.782 3.5995-1.572 5.345-2.479.2714-.142.5773-.292.9044-.454l.0019-.001h.001c1.9638-.969 4.6938-2.316 5.3647-4.212.2712-.765.0917-1.686-.0794-2.563-.0863-.442-.1705-.874-.1936-1.269-.0862-1.48-.0096-3.007.0858-4.515.0136-.214.0275-.428.0414-.642l.0002-.003.027-.416c.0196-.303.0385-.606.0556-.906.3303-5.823.9562-11.627 1.5816-17.426.1945-1.803.3889-3.606.5744-5.409.019-.186.0371-.37.0551-.552.1471-1.4976.2867-2.9188.8909-4.3313.0671-.1567.1598-.3374.2603-.5334.4209-.8207.9788-1.9082.3637-2.6146-.8287-.9507-3.0806-.0597-4.301.4232-.1698.0672-.3197.1265-.443.1718-1.5121.5574-3.0536 1.0844-4.6009 1.6134-3.8804 1.3268-7.7981 2.6663-11.3841 4.5289-6.594 3.424-12.887 7.48-18.718 12.08-5.837 4.605-11.224 9.691-16.02 15.38-3.942 4.676-8.532 10.664-7.806 17.182.612 5.5 5.954 7.505 10.782 8.114zm71.8204-50.238c1.023-.586 1.313-1.708.206-2.515-.788-.5749-2.074-.3921-3.017-.2581l-.118.0167-.094.0131c-1.602.2223-1.832 2.1973-.473 2.9123.798.42 2.688.293 3.496-.169zm2.252 14.859c-.769 1.285-3.582 2.128-3.337-.27.21-2.054 4.755-2.097 3.337.27zm.73-32.7473c1.013.409 2.417.507 2.076-.978-.301-1.306-1.859-1.8192-3.094-2.2256-.274-.0902-.532-.1752-.756-.2624-2.771-.026.941 3.131 1.774 3.466z" fill="#2b292e"/><path d="m180.325.00270571c3.737.05399999 7.24 1.16500429 10.721 2.42800429 3.063 1.111 6.327 2.138 8.803 4.355 4.453 3.98799 5.613 10.59099 6.342 16.24099.909 7.049-2.116 12.964-4.662 19.342-2.381 5.965-6.752 10.797-11.947 14.479-2.722 1.929-5.73 3.093-8.877 4.114-3.197 1.037-6.293 2.426-9.713 2.42-5.194-.007-11.844-2.481-14.056-7.612-1.007-2.337-.027-2.756 1.989-1.486 2.924 1.842 5.743 3.83 9.16 4.647 6.628 1.586 14.565-.871 20.376-4.111 5.809-3.24 9.709-8.107 12.315-14.167 2.63-6.113 3.652-12.137 2.637-18.728-.859-5.585-2.568-10.687-7.588-13.71899-10.835-6.545-25.434-6.017-35.071 2.48799-1.321 1.166-2.627 2.3-3.989 3.414-.866.707-1.886 1.556-1.76 2.78.108 1.048 2.336 5.089-.347 3.848-2.175-1.007-3.357-2.974-5.992-3.218-2.805-.259-6.15 1.901-6.989 4.62-.8 2.595.627 6.144 2.862 7.633 1.384.921 2.907.779 4.479.742.78-.019 2.951-.273 3.467.554.914 1.462-2.309 3-3.348 3.323-2.531.787-5.522-.139-6.976-2.404-1.479-2.303-2.491-4.968-2.695-7.711-.195-2.629.4-5.29 1.946-7.448 1.645-2.296 4.998-4.869 8.004-4.071 1.304.346 2.352 1.697 3.633 1.954.808.162.468.278 1.137-.323.425-.381.827-1.084 1.219-1.536 2.256-2.597 4.487-5.36899 7.248-7.44699 4.95-3.728 11.53-5.4880043 17.672-5.40100429zm-13.69 51.49099429c.586-1.377 1.661 1.079 1.979 1.489.63.812 2.11 1.444 2.046 2.642-.105 1.977-2.793 1.611-3.689.579-1.02-1.174-.914-3.351-.336-4.71zm19.097-9.363c1.45 2.266-.317 4.712-1.464 6.717-1.096 1.918-2.114 4.086-3.39 5.889-2.119 2.993-6.728-.245-6.865-3.321-.104-2.355 1.559-1.33 2.627-.451 1.099.906 1.62 1.132 2.772.142 2.317-1.991 3.359-5.321 4.961-7.842.317-.499.893-.8 1.359-1.134zm4.134.728c.374 1.096-.411 4 1.77 3.71 1.205-.161 1.462-1.894 2.095-2.651 2.131-2.544 1.478 2.267.921 3.472-1.227 2.654-4.661 4.482-6.364 1.115-.634-1.252-.631-2.833-.309-4.18.175-.733 1.197-3.489 1.887-1.466zm-19.446-5.19c-.194 1.279-1.392 3.826.071 4.741 1.288.805 3.53-.943 4.522-1.673 1.03-.759 3.365-2.935 3.456-.227.047 1.381-1.331 3.037-2.315 3.832-2.098 1.697-6.457 3.218-8.004.025-.842-1.739-.381-4.215.176-5.967.451-1.421 2.56-3.819 2.094-.731zm27.518-7c.854.994 2.878 3.222 1.777 4.638-1.286 1.655-3.376-1.382-4.201-2.227-.742-.761-2.304-2.929-1.638-4.079 1.103-1.903 3.312.795 4.062 1.668zm-13.42-4.281c2.791 1.823-.879 3.136-2.468 3.299-1.924.197-4.384.327-6.151-.619-2.505-1.342-1.671-3.369.757-3.855 2.49-.497 5.696-.24 7.862 1.175zm-36.283-5.804c2.052.4 4.396.921 5.095 3.165.722 2.319-.315 3.089-2.411 2.567-1.94-.484-4.837-.97-5.934-2.87-1.31-2.27 1.346-3.233 3.25-2.862z" fill="#2b292e"/><path d="m35.3027 70.4107c-.689 2.23-4.175 3.709-5.914 5.065-6.08 4.744-12.022 9.683-17.52 15.097-2.853 2.81-5.013 6.209-7.487 9.334-.604.7623-1.673 2.4713-2.857 2.3103-1.298998-.175-1.5619978-2.4193-1.52099781-3.3993.14199981-3.341 3.18599781-6.568 5.35599781-8.869 2.441-2.587 5.051-5.108 7.717-7.463 2.935-2.594 6.119-4.823 9.365-7.005 3.187-2.143 6.242-4.619 9.557-6.56 1.561-.914 4.153-1.262 3.304 1.49zm212.5553-21.183c2.538.081 5.015.915 7.409 1.69 5.265 1.705 10.28 4.071 15.225 6.543 8.67 4.333 17.013 9.576 24.661 15.537 1.599 1.246 3.237 2.255 4.976 3.274 1.112.653 2.699 1.449 3.127 2.779 1.089 3.381-4.406-.012-5.186-.498l-1.097-.682c-16.272-10.113-32.525-19.938-50.931-25.737-.98-.309-1.285-1.186-.771-2.056.558-.942 1.644-.879 2.587-.85zm-213.2963 7.076c-.118 1.03-1.28 1.264-2.065 1.594-2.926 1.233-5.925 2.284-8.843 3.537-5.417 2.325-10.391 5.7-16.044 7.465-1.292.404-1.483-.904-1.137-1.793.385-.993 1.542-1.691 2.379-2.265 2.414-1.658 5.152-2.851 7.833-4.002 2.658-1.143 5.394-2.008 8.119-2.966 2.533-.89 5.472-2.548 8.192-2.67l.119-.006c.865-.044 1.584-.102 1.447 1.106zm217.9163-15.638c-2.588-.73-.143-2.373 1.395-2.258 1.716.129 3.374.942 5.001 1.431 4.974 1.498 9.585 3.136 14.232 5.461.693.347 3.746 1.992 1.726 2.721-1.399.504-4.668-1.661-5.87-2.181-5.281-2.283-10.955-3.615-16.484-5.174z" fill="#2b292e"/><path d="m149.323 45.9827c.323-.952 4.324-11.355 2.758-11.669-1.659-.332-3.876 5.703-4.357 6.794-1.777 4.027-2.829 8.349-3.653 12.669-.575 3.008-1.079 6.089-.878 9.164.154 2.364 1.128 2.721 2.732 4.17 0-7.179 1.088-14.334 3.398-21.128z" fill="#2b292e"/></g></g></svg>